<?xml version="1.0" standalone="no"?>
<!DOCTYPE svg PUBLIC "-//W3C//DTD SVG 20010904//EN"
 "http://www.w3.org/TR/2001/REC-SVG-20010904/DTD/svg10.dtd">
<svg version="1.0" xmlns="http://www.w3.org/2000/svg"
 width="512.000000pt" height="512.000000pt" viewBox="0 0 512.000000 512.000000"
 preserveAspectRatio="xMidYMid meet">
<metadata>
Created by potrace 1.11, written by Peter Selinger 2001-2013
</metadata>
<g transform="translate(0.000000,512.000000) scale(0.100000,-0.100000)"
fill="#000000" stroke="none">
<path d="M2501 5103 c-62 -32 -76 -62 -79 -174 l-4 -99 -89 0 c-100 0 -135
-12 -168 -59 -15 -20 -21 -44 -21 -80 0 -44 5 -56 33 -87 37 -41 80 -53 180
-54 l67 0 0 -318 0 -319 -336 -268 c-184 -147 -342 -278 -350 -290 -59 -90
-16 -203 86 -226 30 -7 53 -6 78 2 20 6 117 77 216 157 100 81 238 192 308
249 71 57 132 103 138 103 9 0 175 -132 527 -416 56 -46 119 -88 140 -94 131
-40 235 108 159 225 -8 12 -166 143 -350 291 l-336 268 0 318 0 318 68 0 c99
1 142 13 180 54 27 30 32 43 32 83 0 53 -25 104 -62 125 -13 7 -66 15 -118 18
l-95 5 -5 95 c-5 102 -18 135 -65 166 -38 25 -95 28 -134 7z"/>
<path d="M2463 3262 c-90 -32 -142 -83 -176 -170 -14 -35 -17 -82 -17 -286 l0
-243 -177 -98 c-98 -54 -207 -117 -243 -140 -36 -23 -171 -102 -300 -175 -129
-74 -415 -236 -635 -361 -220 -125 -417 -242 -438 -260 -53 -47 -66 -101 -39
-162 24 -53 55 -76 119 -88 46 -9 46 -9 272 118 124 69 321 181 436 248 116
67 289 166 385 220 183 103 370 211 455 262 108 66 446 253 456 253 6 0 41
-18 77 -39 37 -21 139 -79 227 -128 88 -50 189 -108 225 -130 36 -22 196 -113
355 -203 160 -90 317 -180 350 -200 62 -38 224 -130 541 -308 179 -101 181
-102 227 -93 101 18 146 88 123 187 -11 49 -49 77 -272 203 -433 244 -1120
639 -1158 665 -22 14 -122 72 -223 128 l-183 101 0 238 c0 265 -7 305 -70 381
-67 81 -211 118 -317 80z"/>
<path d="M2464 1269 c-66 -19 -127 -71 -161 -137 l-33 -64 0 -534 0 -534 290
0 290 0 0 525 c0 499 -1 527 -20 577 -23 63 -85 128 -150 157 -49 22 -158 27
-216 10z"/>
<path d="M1515 1001 c-96 -16 -171 -75 -215 -172 -18 -41 -20 -67 -20 -436 l0
-393 291 0 290 0 -3 393 c-3 386 -3 393 -26 439 -61 123 -186 189 -317 169z"/>
<path d="M3505 1000 c-97 -15 -190 -93 -225 -187 -19 -50 -20 -78 -20 -433 l0
-380 295 0 295 0 0 368 c0 340 -2 373 -20 426 -53 154 -174 231 -325 206z"/>
</g>
</svg>
